<?xml version="1.0" standalone="no"?><!DOCTYPE svg PUBLIC "-//W3C//DTD SVG 1.1//EN" "http://www.w3.org/Graphics/SVG/1.1/DTD/svg11.dtd"><svg t="1572851022121" class="icon" viewBox="0 0 1024 1024" version="1.1" xmlns="http://www.w3.org/2000/svg" p-id="729" xmlns:xlink="http://www.w3.org/1999/xlink" width="200" height="200"><defs><style type="text/css"></style></defs><path d="M921.590246 0H102.398916C45.846285 0 0.000903 45.843575 0.000903 102.398013v819.202168c0 56.556244 45.845382 102.398013 102.398013 102.398013h819.193137c56.563469 0 102.407044-45.843575 102.407044-102.398013V102.398013C1023.999097 45.843575 978.155522 0 921.590246 0zM516.575146 727.549335H197.680437V308.279575h310.875109v70.908439H282.319732v92.982208h210.492832v70.657374H282.319732v114.062558h234.255414v70.659181z m310.871496 0h-80.351338v-155.002256c0-32.799081-1.717712-54.027541-5.13146-63.654674a44.548518 44.548518 0 0 0-16.758075-22.435012 47.698559 47.698559 0 0 0-27.895204-8.019601c-13.911478 0-26.358114 3.802085-37.448282 11.45683-11.057656 7.613202-18.672664 17.715369-22.742069 30.308309-4.096499 12.594746-6.142942 35.87868-6.142942 69.783166v137.565044H550.625935V423.819618h74.640081v44.620767c26.50803-34.336171 59.854395-51.468133 100.078832-51.468133 17.758718 0 33.938804 3.184359 48.614311 9.54766 14.686345 6.413874 25.812637 14.536429 33.319272 24.457974 7.542759 9.921546 12.811492 21.159824 15.73395 33.75457 2.935101 12.594746 4.436067 30.602722 4.436067 54.074503l-0.001806 188.742376z" fill="#ffffff" p-id="730"></path></svg>