<?xml version="1.0" standalone="no"?><!DOCTYPE svg PUBLIC "-//W3C//DTD SVG 1.1//EN" "http://www.w3.org/Graphics/SVG/1.1/DTD/svg11.dtd"><svg t="1572851587829" class="icon" viewBox="0 0 1024 1024" version="1.1" xmlns="http://www.w3.org/2000/svg" p-id="23571" xmlns:xlink="http://www.w3.org/1999/xlink" width="200" height="200"><defs><style type="text/css"></style></defs><path d="M514 114.3c-219.9 0-398.9 178.9-398.9 398.9 0.1 219.9 179 398.8 398.9 398.8 219.9 0 398.8-178.9 398.8-398.8S733.9 114.3 514 114.3z m165.5 661.4H351c-14.8 0-26.7-12-26.7-26.7s12-26.7 26.7-26.7h328.5c14.8 0 26.7 12 26.7 26.7 0 14.8-11.9 26.7-26.7 26.7z m40.2-236L555.6 703.8c-22.9 22.9-60.2 22.9-83.1 0L308.4 539.7c-22.9-22.9-22.9-60.2 0-83.1 11.5-11.5 26.5-17.2 41.5-17.2s30.1 5.7 41.5 17.2l63.8 63.8V291.7c0-32.5 26.3-58.8 58.8-58.8s58.8 26.3 58.8 58.8v228.7l63.8-63.8c22.9-22.9 60.2-22.9 83.1 0 22.9 22.9 22.9 60.1 0 83.1z" p-id="23572" fill="#ffffff"></path></svg>