<?xml version="1.0" standalone="no"?><!DOCTYPE svg PUBLIC "-//W3C//DTD SVG 1.1//EN" "http://www.w3.org/Graphics/SVG/1.1/DTD/svg11.dtd"><svg t="1572851245540" class="icon" viewBox="0 0 1024 1024" version="1.1" xmlns="http://www.w3.org/2000/svg" p-id="7055" xmlns:xlink="http://www.w3.org/1999/xlink" width="200" height="200"><defs><style type="text/css"></style></defs><path d="M512 0C229.2224 0 0 229.2224 0 512s229.2224 512 512 512 512-229.2224 512-512S794.7776 0 512 0z m234.990933 555.4176C726.186667 668.689067 627.3536 750.933333 512 750.933333c-131.754667 0-238.933333-107.178667-238.933333-238.933333s107.178667-238.933333 238.933333-238.933333c51.575467 0 101.2224 17.015467 141.806933 46.8992v-31.965867a34.133333 34.133333 0 0 1 68.266667 0v119.1936c0 0.426667-0.1024 0.802133-0.119467 1.2288-0.017067 0.529067-0.119467 1.058133-0.1536 1.5872a34.013867 34.013867 0 0 1-33.8432 31.317333h-119.3984a34.133333 34.133333 0 0 1 0-68.266666h42.530134A169.608533 169.608533 0 0 0 512 341.333333c-94.1056 0-170.666667 76.561067-170.666667 170.666667s76.561067 170.666667 170.666667 170.666667a170.496 170.496 0 0 0 167.850667-139.588267 34.116267 34.116267 0 1 1 67.140266 12.3392z" fill="#ffffff" p-id="7056"></path></svg>